<svg width="102" height="41" viewBox="0 0 102 41" fill="none" xmlns="http://www.w3.org/2000/svg">
<path d="M3.4921 31.9406C3.37817 32.1202 3.2101 32.2736 2.98788 32.4009C2.30593 32.7914 1.65275 33.3245 1.55457 34.1042V34.1042C1.4156 35.2078 2.33346 36.1767 3.44414 36.1165C3.4996 36.1135 3.55602 36.1104 3.61342 36.1073C4.81041 36.0431 5.94271 36.011 7.0103 36.011C7.81908 36.011 8.86241 36.0431 10.1403 36.1073V36.1073C11.5555 36.1785 12.8243 35.1813 13.0654 33.785L13.2087 32.9553C13.2173 32.9058 13.2134 32.855 13.1974 32.8073V32.8073C13.1543 32.6792 13.0316 32.5951 12.8966 32.6012L12.0571 32.639C11.5718 32.639 11.2321 32.5026 11.038 32.2296C10.8439 31.9566 10.7469 31.4669 10.7469 30.7604C10.7469 22.2181 10.8844 15.3056 11.1593 10.0229C11.3908 5.57614 11.7082 2.8189 12.1116 1.75114C12.2168 1.47277 12.2827 1.14899 12.1803 0.869572V0.869572C12.053 0.521994 11.6947 0.315936 11.3295 0.376194C10.4888 0.514896 9.16229 0.71979 7.34998 0.990873C5.74516 1.23092 4.20755 1.44873 2.73717 1.64429C1.54625 1.80268 0.613615 2.75235 0.489087 3.94729L0.43682 4.44884C0.419729 4.61284 0.456133 4.77826 0.483435 4.94087V4.94087V4.94087C0.509075 5.09358 0.653915 5.18172 0.808762 5.18172H1.52676C2.04438 5.18172 2.46495 5.21384 2.78846 5.27807C3.20903 5.40652 3.50019 5.67146 3.66194 6.07288C3.8237 6.47431 3.90458 7.07644 3.90458 7.87929V29.5561C3.90458 30.7122 3.76708 31.507 3.4921 31.9406ZM11.8848 22.9989C11.5871 23.3155 11.4001 23.72 11.3518 24.1519V24.1519C11.3055 24.5652 11.3886 24.9828 11.5897 25.3469L15.6966 32.7836C16.4083 34.0681 17.0796 34.9834 17.7105 35.5293C18.3413 36.0752 19.142 36.4285 20.1125 36.589C20.5008 36.6533 20.9052 36.6854 21.3257 36.6854L22.4904 36.6372C23.0403 36.6051 23.7035 36.5248 24.48 36.3964V36.3964C25.3689 36.2493 26.0672 35.5386 26.1871 34.6456L26.3458 33.464C26.3632 33.3345 26.3411 33.2028 26.2823 33.0862V33.0862C26.1868 32.8966 26.004 32.7683 25.796 32.7263C25.0222 32.5701 24.3166 32.26 23.6793 31.7961C22.9514 31.2662 22.2801 30.4714 21.6654 29.4116L18.582 24.1879C18.2549 23.6338 18.3457 22.9283 18.8023 22.475V22.475C20.1934 21.062 21.4228 19.9059 22.4904 19.0067C22.9738 18.5996 23.4638 18.2352 23.9605 17.9136C25.0412 17.214 25.8931 16.1521 26.0608 14.8757L26.2138 13.7119C26.2223 13.647 26.2085 13.5811 26.1746 13.5251V13.5251C26.1176 13.4306 26.0119 13.3771 25.9019 13.3852C25.4994 13.4147 24.8071 13.45 23.8249 13.4912C22.6764 13.5393 21.6007 13.5634 20.5978 13.5634C19.142 13.5634 17.8156 13.5474 16.6186 13.5153C16.5085 13.5123 16.4018 13.5095 16.2986 13.5068C15.1156 13.4761 14.1101 14.3322 13.9333 15.5023L13.8205 16.2487C13.8099 16.3189 13.8242 16.3906 13.8609 16.4514V16.4514C13.916 16.5425 14.0147 16.598 14.1212 16.5991C14.9366 16.6078 15.5183 16.6797 15.8664 16.815C16.2385 16.9595 16.4245 17.2084 16.4245 17.5616C16.4245 17.7864 16.3598 18.0192 16.2304 18.2601C16.101 18.5009 15.8584 18.798 15.5025 19.1512L11.8848 22.9989ZM34.0586 32.9207C33.2915 33.0843 32.6664 33.6772 32.5779 34.4566V34.4566C32.457 35.5218 33.3611 36.4355 34.4293 36.3445C34.8452 36.309 35.3138 36.2701 35.8353 36.2278C37.6146 36.0833 39.1836 36.011 40.5424 36.011C41.5776 36.011 42.904 36.0431 44.5216 36.1073C44.7675 36.1171 45.0008 36.1265 45.2213 36.1355C46.6452 36.1938 47.9056 35.1863 48.1445 33.7814L48.33 32.6906C48.346 32.5966 48.3209 32.5002 48.261 32.4259V32.4259C48.1978 32.3474 48.1026 32.3018 48.0019 32.3063C47.8503 32.3131 47.6283 32.3277 47.3361 32.35C46.9156 32.3821 46.4303 32.3982 45.8803 32.3982C45.1362 32.3982 44.6105 32.1573 44.3032 31.6756C43.9959 31.1939 43.8422 30.375 43.8422 29.2189C43.8422 23.9201 44.0525 19.7453 44.473 16.6945C44.6024 15.7632 44.8127 15.0326 45.1039 14.5028C45.2745 14.1922 45.4896 13.8954 45.7492 13.6124C46.0912 13.2396 46.2463 12.7148 46.069 12.2409V12.2409C45.874 11.7197 45.3416 11.4054 44.791 11.4864L44.4245 11.5403C43.8745 11.6045 43.1143 11.7089 42.1437 11.8534C41.1732 11.9979 39.9115 12.1665 38.3587 12.3592C37.1812 12.5165 35.8372 12.6739 34.3269 12.8312C33.1433 12.9545 32.2007 13.8825 32.0723 15.0656L31.9771 15.9431C31.9618 16.0842 32.0066 16.2253 32.1005 16.3318V16.3318C32.2195 16.4669 32.4015 16.5287 32.5799 16.5045C32.7438 16.4821 32.9554 16.4572 33.2148 16.4296C33.6677 16.3814 34.153 16.3573 34.6706 16.3573C35.5764 16.3573 36.1992 16.542 36.5389 16.9113C36.8786 17.2806 37.0484 18.0112 37.0484 19.1031V29.1707C37.0484 30.5195 36.733 31.4749 36.1021 32.0369C35.6616 32.4294 34.9804 32.724 34.0586 32.9207ZM57.551 33.4098C59.3465 35.5293 61.8618 36.589 65.0969 36.589C67.3939 36.589 69.3997 36.0511 71.1143 34.9753C72.8289 33.8995 74.1472 32.358 75.0692 30.3509C75.9912 28.3438 76.4522 25.9915 76.4522 23.2939C76.4522 19.5366 75.5545 16.6062 73.759 14.5028C71.9635 12.3993 69.4805 11.3476 66.3101 11.3476C64.0132 11.3476 61.9993 11.8855 60.2685 12.9613C58.5377 14.0371 57.2032 15.5705 56.2651 17.5616C55.3269 19.5527 54.8578 21.8809 54.8578 24.5464C54.8578 28.3358 55.7555 31.2903 57.551 33.4098ZM70.4106 27.8461C69.3592 28.665 67.8468 29.0744 65.8734 29.0744C63.8353 29.0744 62.2339 28.6168 61.0692 27.7015C59.9046 26.7863 59.3223 25.5258 59.3223 23.9201C59.3223 22.3787 59.8399 21.1824 60.8751 20.3314C61.9104 19.4804 63.3985 19.0549 65.3396 19.0549C67.4424 19.0549 69.0762 19.5205 70.2408 20.4518C71.4054 21.3831 71.9878 22.6677 71.9878 24.3055C71.9878 25.847 71.4621 27.0272 70.4106 27.8461ZM83.1975 39.5034C83.8445 40.3223 84.8797 40.7317 86.3032 40.7317C88.6972 40.7317 91.0669 40.2099 93.4124 39.1662C95.7578 38.1225 97.6666 36.7416 99.1385 35.0235C100.611 33.3054 101.347 31.5311 101.347 29.7006C101.347 27.549 100.425 25.855 98.5805 24.6186C97.0245 23.5754 94.7199 22.7207 91.6667 22.0547C90.6731 21.838 89.9809 20.9191 90.0925 19.9083V19.9083C90.2006 18.929 91.0282 18.1857 92.0133 18.2007C93.4867 18.2232 94.867 18.2751 96.1541 18.3564C97.378 18.4337 98.2958 18.4921 98.9074 18.5314C99.3151 18.5576 99.7134 18.4012 99.9939 18.1043V18.1043C100.18 17.9075 100.303 17.6601 100.348 17.3932L101.242 12.1396C101.418 11.1009 100.572 10.1728 99.5214 10.253V10.253C98.8645 10.3032 98.354 10.7839 97.9569 11.3096C97.8051 11.5106 97.6328 11.6677 97.4401 11.7811C97.0034 12.038 96.3159 12.1825 95.3777 12.2147L86.1878 12.5421C86.0124 12.5484 85.8458 12.6205 85.7213 12.7441V12.7441C85.5962 12.8682 85.523 13.0345 85.5147 13.2105C85.4724 14.1087 85.3713 15.7919 85.2113 18.2601C85.041 20.8893 84.8187 23.5259 84.5445 26.1698C84.5211 26.3947 84.5887 26.6196 84.7325 26.7941V26.7941C84.8687 26.9593 85.0629 27.0663 85.275 27.0947C88.3343 27.5048 90.4887 28.0121 91.7382 28.6168C93.0322 29.243 93.6793 30.1181 93.6793 31.2421C93.6793 32.3661 93.0565 33.2813 91.811 33.9878C90.5655 34.6943 89.0045 35.0476 87.1282 35.0476C85.7831 35.0476 84.5885 34.8875 83.5444 34.5673C83.124 34.4384 82.6588 34.5342 82.3557 34.8527V34.8527C82.1498 35.0691 82.0419 35.3621 82.0676 35.6597C82.2241 37.4668 82.6007 38.7481 83.1975 39.5034Z" fill="#42446E"/>
</svg>
